<svg xmlns="http://www.w3.org/2000/svg" viewBox="0 0 320 64"><g transform="translate(0 8)"><path fill="#302331" d="M37 8c11 0 19 7 19 16 0 5-2 9-6 12l3 9-12-5h-4c-11 0-19-7-19-16S26 8 37 8Z"/><path fill="#EA7058" d="M21 3C10 3 2 11 2 21c0 5 2 10 6 13L4 45l13-6h4c11 0 19-8 19-18S32 3 21 3Z"/><path d="M21 11v16M13 19h16M15 13l12 12M27 13 15 25" stroke="#302331" stroke-width="2.4" stroke-linecap="round"/></g><text x="70" y="47" font-family="Arial, sans-serif" font-size="44" font-weight="800" letter-spacing="-2" fill="#302331">heykeen</text></svg>
